# xmcd
#
# Track frame offsets:
#	182
#	28505
#	46457
#	69397
#	94480
#	112980
#	135387
#	158667
#	178272
#	202082
#
# Disc length: 2972 seconds
#
# Revision: 1
# Processed by: cddbd v1.5.1PL0 Copyright (c) Steve Scherf et al.
# Submitted via: CDex 1.50Beta5
#
DISCID=880b9a0a
DTITLE=Various Artist - MANHATTAN KISS
DYEAR=1900
DGENRE=
TTITLE0=プラスティック・ラブ
TTITLE1=とどかぬ想い
TTITLE2=シングル・アゲイン
TTITLE3=OH NO OH YES!
TTITLE4=ブロークン ハート
TTITLE5=マンハッタン・キス
TTITLE6=告白
TTITLE7=もう一度
TTITLE8=純愛ラプソディ
TTITLE9=元気を出して
EXTD=
EXTT0=
EXTT1=
EXTT2=
EXTT3=
EXTT4=
EXTT5=
EXTT6=
EXTT7=
EXTT8=
EXTT9=
PLAYORDER=
